<?xml version="1.0" encoding="UTF-8"?>
<svg id="Layer_1" xmlns="http://www.w3.org/2000/svg" version="1.1" viewBox="0 0 98.73 92.65">
  <!-- Generator: Adobe Illustrator 29.7.1, SVG Export Plug-In . SVG Version: 2.1.1 Build 8)  -->
  <defs>
    <style>
      .st0 {
        fill: #fff6c7;
      }
    </style>
  </defs>
  <path class="st0" d="M66.69,31.35C61.05,29.2,58.72-2.73,48.71.19c-4.36,1.27-11.11,28.47-15.58,29.96-5.53,1.85-30.89-3.11-32.96,3-2.47,7.27,22.91,20.51,23.97,25.17,1.2,5.26-12.68,30.4-4.19,32.96,8.08.87,24.21-16.08,29.96-15.58,4.63.4,21.4,18.91,28.76,16.78,8.4-2.75-5.6-27.17-4.19-32.97.7-2.88,23.25-17.63,23.97-20.37,3.47-13.22-25.83-5.52-31.76-7.79Z"/>
</svg>