<?xml version="1.0" encoding="UTF-8"?>
<svg id="Layer_1" xmlns="http://www.w3.org/2000/svg" version="1.1" viewBox="0 0 98.73 92.65">
  <!-- Generator: Adobe Illustrator 29.7.1, SVG Export Plug-In . SVG Version: 2.1.1 Build 8)  -->
  <defs>
    <style>
      .st0 {
        fill: #271e0d;
      }
    </style>
  </defs>
  <path class="st0" d="M78.67,92.48c-7.36,2.13-24.13-16.38-28.76-16.78-5.75-.5-21.88,16.45-29.96,15.58-8.49-2.56,5.39-27.7,4.19-32.96C23.08,53.66-2.3,40.42.17,33.15c2.07-6.11,27.43-1.15,32.96-3,4.47-1.49,11.22-28.69,15.58-29.96,10.01-2.92,12.34,29.01,17.98,31.16,5.93,2.27,35.23-5.43,31.76,7.79-.72,2.74-23.27,17.49-23.97,20.37-1.41,5.8,12.59,30.22,4.19,32.96h0Z"/>
</svg>