<?xml version="1.0" encoding="UTF-8"?>
<svg id="Layer_1" xmlns="http://www.w3.org/2000/svg" version="1.1" viewBox="0 0 62.09 23.78">
  <!-- Generator: Adobe Illustrator 29.7.1, SVG Export Plug-In . SVG Version: 2.1.1 Build 8)  -->
  <defs>
    <style>
      .st0 {
        fill: #fe0000;
      }

      .st1 {
        fill: #ffd2d2;
      }
    </style>
  </defs>
  <path class="st0" d="M50.2,0H11.89C5.32,0,0,5.32,0,11.89s5.32,11.89,11.89,11.89h38.31c6.57,0,11.89-5.32,11.89-11.89S56.77,0,50.2,0ZM49.03,20.95H12.45c-5,0-9.06-4.06-9.06-9.06S7.45,2.83,12.45,2.83h36.58c5,0,9.06,4.06,9.06,9.06s-4.06,9.06-9.06,9.06Z"/>
  <path class="st1" d="M49.03,2.83H12.45C7.45,2.83,3.39,6.89,3.39,11.89s4.06,9.06,9.06,9.06h36.58c5,0,9.06-4.06,9.06-9.06s-4.06-9.06-9.06-9.06Z"/>
</svg>